<svg width="40" height="78" fill="none" xmlns="http://www.w3.org/2000/svg"><path d="M36.604 11.85h-6.906a1.132 1.132 0 1 0 0 2.263h6.906a1.133 1.133 0 0 1 0 2.264H3.396a1.133 1.133 0 0 1 0-2.264h21.472a1.132 1.132 0 1 0 0-2.264h-1.472V6.792h4.453a3.4 3.4 0 0 0 3.396-3.396A3.4 3.4 0 0 0 27.85 0H12.151a3.4 3.4 0 0 0-3.396 3.396 3.4 3.4 0 0 0 3.396 3.396h4.453v5.057H3.396A3.4 3.4 0 0 0 0 15.245a3.4 3.4 0 0 0 3.396 3.397h1.887v.653a1.132 1.132 0 1 0 2.264 0v-.654h24.906v18.055a9.64 9.64 0 0 0-4.47-2.062 4.137 4.137 0 0 0 1.753-3.389 4.156 4.156 0 0 0-4.151-4.15 4.158 4.158 0 0 0-3.944 2.856 9.66 9.66 0 0 0-3.282 0 4.158 4.158 0 0 0-3.944-2.857 4.156 4.156 0 0 0-4.15 4.151c0 1.385.677 2.63 1.752 3.389a9.645 9.645 0 0 0-4.47 2.061V24.151a1.132 1.132 0 0 0-2.264 0v32.604c0 .03.002.06.005.091v.019a1.09 1.09 0 0 0 .06.263l.01.031c.015.037.03.072.048.107.002.004.003.009.006.013l.006.013.002.004 2.357 4.511c.195.374.58.608 1.002.608h5.56v3.396c0 .625.508 1.132 1.133 1.132h3.396v9.208a1.132 1.132 0 0 0 2.264 0v-9.208h3.396c.626 0 1.132-.507 1.132-1.132v-3.396h5.56c.422 0 .808-.234 1.004-.608l2.356-4.512.001-.002.007-.014.007-.015a1.028 1.028 0 0 0 .088-.24c.003-.01.006-.017.007-.026a1.21 1.21 0 0 0 .022-.132v-.02c.003-.03.005-.06.005-.091v-3.648a1.132 1.132 0 1 0-2.264 0v2.516H7.547V43.317c2.86-.308 5.129-1.135 6.888-1.929 1.45 1.15 3.41 1.857 5.565 1.857 2.156 0 4.116-.707 5.565-1.857 1.76.794 4.029 1.621 6.888 1.93v4.965a1.132 1.132 0 0 0 2.264 0V18.641h1.887A3.4 3.4 0 0 0 40 15.245a3.4 3.4 0 0 0-3.396-3.396ZM11.019 3.395c0-.624.508-1.132 1.132-1.132h15.698a1.133 1.133 0 0 1 0 2.264H12.151a1.133 1.133 0 0 1-1.132-1.132Zm7.849 3.396h2.264v5.057h-2.264V6.792Zm6.717 22.567a1.889 1.889 0 0 1 1.108 3.415c-.734-.902-1.724-1.648-2.882-2.166a1.888 1.888 0 0 1 1.774-1.25Zm-11.17 0c.817 0 1.512.522 1.774 1.25-1.158.517-2.148 1.263-2.882 2.165a1.889 1.889 0 0 1 1.108-3.415Zm8.981 35.32h-6.792v-2.264h6.792v2.264Zm8.32-6.792-1.182 2.264H9.466l-1.182-2.264h23.432ZM7.547 40.024a7.468 7.468 0 0 1 4.396-3.063c.074.952.386 1.85.889 2.655-1.432.598-3.182 1.17-5.285 1.425v-1.017Zm7.925-.71a1.088 1.088 0 0 0-.132-.128c-.723-.743-1.151-1.662-1.151-2.658 0-.61.161-1.192.453-1.723.009-.014.016-.03.024-.043.593-1.046 1.693-1.885 3.062-2.332A7.341 7.341 0 0 1 20 32.076a7.338 7.338 0 0 1 2.27.353c1.37.447 2.471 1.287 3.064 2.333.008.014.015.03.024.043.292.53.453 1.112.453 1.723 0 .996-.428 1.915-1.151 2.658-.047.039-.091.082-.131.128-1.066 1.016-2.7 1.667-4.529 1.667-1.829 0-3.462-.651-4.528-1.666Zm11.696.302a5.836 5.836 0 0 0 .89-2.655 7.47 7.47 0 0 1 4.395 3.063v1.017c-2.103-.256-3.853-.827-5.285-1.425Z" fill="#000"/></svg>